<?xml version="1.0" encoding="UTF-8"?>
<!DOCTYPE svg PUBLIC "-//W3C//DTD SVG 1.1//EN" "http://www.w3.org/Graphics/SVG/1.1/DTD/svg11.dtd">
<svg xmlns="http://www.w3.org/2000/svg" version="1.1" width="1008px" height="168px" style="shape-rendering:geometricPrecision; text-rendering:geometricPrecision; image-rendering:optimizeQuality; fill-rule:evenodd; clip-rule:evenodd" xmlns:xlink="http://www.w3.org/1999/xlink">
<g><path style="opacity:1" fill="#69e9f4" d="M 485.5,17.5 C 489.5,17.5 493.5,17.5 497.5,17.5C 497.5,61.5 497.5,105.5 497.5,149.5C 493.5,149.5 489.5,149.5 485.5,149.5C 485.5,105.5 485.5,61.5 485.5,17.5 Z"/></g>
<g><path style="opacity:1" fill="#69e9f4" d="M 557.5,17.5 C 561.5,17.5 565.5,17.5 569.5,17.5C 569.5,61.5 569.5,105.5 569.5,149.5C 565.5,149.5 561.5,149.5 557.5,149.5C 557.5,105.5 557.5,61.5 557.5,17.5 Z"/></g>
<g><path style="opacity:0.913" fill="#fefffe" d="M 759.5,39.5 C 773.521,38.3665 781.355,44.6998 783,58.5C 783.499,62.1516 783.665,65.8183 783.5,69.5C 778.833,69.5 774.167,69.5 769.5,69.5C 769.888,64.3722 769.388,59.3722 768,54.5C 764.352,51.6035 761.019,51.9368 758,55.5C 756.407,72.455 756.073,89.455 757,106.5C 757.617,113.39 761.117,115.557 767.5,113C 768.126,112.25 768.626,111.416 769,110.5C 769.5,103.842 769.666,97.175 769.5,90.5C 767.5,90.5 765.5,90.5 763.5,90.5C 763.5,86.1667 763.5,81.8333 763.5,77.5C 770.167,77.5 776.833,77.5 783.5,77.5C 783.666,87.8387 783.5,98.172 783,108.5C 781.881,120.618 775.214,126.952 763,127.5C 751.253,127.084 744.586,121.084 743,109.5C 742.333,92.1667 742.333,74.8333 743,57.5C 744.237,47.4351 749.737,41.4351 759.5,39.5 Z"/></g>
<g><path style="opacity:0.955" fill="#fefffe" d="M 637.5,41.5 C 649.833,41.5 662.167,41.5 674.5,41.5C 674.5,45.5 674.5,49.5 674.5,53.5C 666.833,53.5 659.167,53.5 651.5,53.5C 651.5,60.8333 651.5,68.1667 651.5,75.5C 657.5,75.5 663.5,75.5 669.5,75.5C 669.5,79.8333 669.5,84.1667 669.5,88.5C 663.5,88.5 657.5,88.5 651.5,88.5C 651.5,96.8333 651.5,105.167 651.5,113.5C 659.167,113.5 666.833,113.5 674.5,113.5C 674.5,117.5 674.5,121.5 674.5,125.5C 662.167,125.5 649.833,125.5 637.5,125.5C 637.5,97.5 637.5,69.5 637.5,41.5 Z"/></g>
<g><path style="opacity:0.922" fill="#fefffe" d="M 687.5,41.5 C 692.167,41.5 696.833,41.5 701.5,41.5C 701.333,63.1692 701.5,84.8359 702,106.5C 702.344,113.077 705.511,115.244 711.5,113C 712.701,112.097 713.535,110.931 714,109.5C 714.5,86.8358 714.667,64.1691 714.5,41.5C 719.167,41.5 723.833,41.5 728.5,41.5C 728.95,65.8772 728.45,90.2105 727,114.5C 723.808,123.273 717.475,127.606 708,127.5C 698.525,127.606 692.192,123.273 689,114.5C 687.55,90.2105 687.05,65.8772 687.5,41.5 Z"/></g>
<g><path style="opacity:0.926" fill="#fefffe" d="M 797.5,41.5 C 809.833,41.5 822.167,41.5 834.5,41.5C 834.5,45.5 834.5,49.5 834.5,53.5C 827.167,53.5 819.833,53.5 812.5,53.5C 812.5,60.8333 812.5,68.1667 812.5,75.5C 818.5,75.5 824.5,75.5 830.5,75.5C 830.5,79.8333 830.5,84.1667 830.5,88.5C 824.5,88.5 818.5,88.5 812.5,88.5C 812.5,96.8333 812.5,105.167 812.5,113.5C 819.833,113.5 827.167,113.5 834.5,113.5C 834.5,117.5 834.5,121.5 834.5,125.5C 822.167,125.5 809.833,125.5 797.5,125.5C 797.5,97.5 797.5,69.5 797.5,41.5 Z"/></g>
<g><path style="opacity:0.941" fill="#fefffe" d="M 848.5,41.5 C 854.5,41.5 860.5,41.5 866.5,41.5C 870.02,56.8977 873.854,72.231 878,87.5C 878.5,72.1703 878.667,56.837 878.5,41.5C 882.5,41.5 886.5,41.5 890.5,41.5C 890.5,69.5 890.5,97.5 890.5,125.5C 885.57,125.803 880.737,125.469 876,124.5C 871.333,106.5 866.667,88.5 862,70.5C 861.5,88.8303 861.333,107.164 861.5,125.5C 857.167,125.5 852.833,125.5 848.5,125.5C 848.5,97.5 848.5,69.5 848.5,41.5 Z"/></g>
<g><path style="opacity:0.943" fill="#fefffe" d="M 907.5,41.5 C 912.167,41.5 916.833,41.5 921.5,41.5C 921.5,69.5 921.5,97.5 921.5,125.5C 916.833,125.5 912.167,125.5 907.5,125.5C 907.5,97.5 907.5,69.5 907.5,41.5 Z"/></g>
<g><path style="opacity:0.922" fill="#fefffe" d="M 936.5,41.5 C 941.167,41.5 945.833,41.5 950.5,41.5C 950.333,63.1692 950.5,84.8359 951,106.5C 951.344,113.077 954.511,115.244 960.5,113C 961.701,112.097 962.535,110.931 963,109.5C 963.5,86.8358 963.667,64.1691 963.5,41.5C 968.167,41.5 972.833,41.5 977.5,41.5C 977.95,65.8772 977.45,90.2105 976,114.5C 972.808,123.273 966.475,127.606 957,127.5C 947.525,127.606 941.192,123.273 938,114.5C 936.55,90.2105 936.05,65.8772 936.5,41.5 Z"/></g>
<g><path style="opacity:0.912" fill="#fefffe" d="M 31.5,45.5 C 37.5,45.5 43.5,45.5 49.5,45.5C 53.5546,71.2163 57.888,96.883 62.5,122.5C 57.8804,123.493 53.2137,123.827 48.5,123.5C 48.3294,118.804 47.8294,114.137 47,109.5C 42.5986,108.533 38.0986,108.2 33.5,108.5C 33.2988,113.242 32.6321,117.909 31.5,122.5C 27.5546,123.491 23.5546,123.824 19.5,123.5C 23.7169,97.5323 27.7169,71.5323 31.5,45.5 Z M 39.5,64.5 C 41.9073,74.8175 43.9073,85.3175 45.5,96C 42.1832,96.4983 38.8499,96.665 35.5,96.5C 37.1139,85.8695 38.4472,75.2028 39.5,64.5 Z"/></g>
<g><path style="opacity:0.927" fill="#fefffe" d="M 73.5,45.5 C 82.1731,45.3336 90.8397,45.5002 99.5,46C 105,47.5 108.5,51 110,56.5C 110.667,62.5 110.667,68.5 110,74.5C 109.184,78.1349 107.35,81.1349 104.5,83.5C 107.566,85.2932 109.4,87.9599 110,91.5C 110.009,102.128 110.843,112.628 112.5,123C 107.845,123.499 103.179,123.666 98.5,123.5C 97.7446,113.866 97.2446,104.2 97,94.5C 96.5,92.6667 95.3333,91.5 93.5,91C 91.1902,90.5034 88.8568,90.3367 86.5,90.5C 86.5,101.5 86.5,112.5 86.5,123.5C 82.1667,123.5 77.8333,123.5 73.5,123.5C 73.5,97.5 73.5,71.5 73.5,45.5 Z M 86.5,57.5 C 94.99,55.6594 98.6566,58.9927 97.5,67.5C 98.8489,76.1511 95.1823,79.8177 86.5,78.5C 86.5,71.5 86.5,64.5 86.5,57.5 Z"/></g>
<g><path style="opacity:0.925" fill="#fefffe" d="M 121.5,45.5 C 134.5,45.5 147.5,45.5 160.5,45.5C 160.5,49.5 160.5,53.5 160.5,57.5C 156.167,57.5 151.833,57.5 147.5,57.5C 147.5,79.5 147.5,101.5 147.5,123.5C 143.167,123.5 138.833,123.5 134.5,123.5C 134.5,101.5 134.5,79.5 134.5,57.5C 130.167,57.5 125.833,57.5 121.5,57.5C 121.5,53.5 121.5,49.5 121.5,45.5 Z"/></g>
<g><path style="opacity:0.927" fill="#fefffe" d="M 171.5,45.5 C 182.833,45.5 194.167,45.5 205.5,45.5C 205.5,49.5 205.5,53.5 205.5,57.5C 198.5,57.5 191.5,57.5 184.5,57.5C 184.5,63.8333 184.5,70.1667 184.5,76.5C 190.167,76.5 195.833,76.5 201.5,76.5C 201.5,80.5 201.5,84.5 201.5,88.5C 195.833,88.5 190.167,88.5 184.5,88.5C 184.5,96.1667 184.5,103.833 184.5,111.5C 191.5,111.5 198.5,111.5 205.5,111.5C 205.5,115.5 205.5,119.5 205.5,123.5C 194.167,123.5 182.833,123.5 171.5,123.5C 171.5,97.5 171.5,71.5 171.5,45.5 Z"/></g>
<g><path style="opacity:0.921" fill="#fefffe" d="M 218.5,45.5 C 224.758,45.1903 230.924,45.5236 237,46.5C 239.427,63.1539 241.76,79.8205 244,96.5C 246.746,79.5329 249.246,62.5329 251.5,45.5C 257.5,45.5 263.5,45.5 269.5,45.5C 269.5,71.5 269.5,97.5 269.5,123.5C 265.5,123.5 261.5,123.5 257.5,123.5C 257.667,106.83 257.5,90.1633 257,73.5C 254.359,90.1559 251.859,106.823 249.5,123.5C 245.563,123.793 241.73,123.46 238,122.5C 235.667,106.833 233.333,91.1667 231,75.5C 230.5,91.4965 230.333,107.497 230.5,123.5C 226.5,123.5 222.5,123.5 218.5,123.5C 218.5,97.5 218.5,71.5 218.5,45.5 Z"/></g>
<g><path style="opacity:0.932" fill="#fefffe" d="M 284.5,45.5 C 288.833,45.5 293.167,45.5 297.5,45.5C 297.5,71.5 297.5,97.5 297.5,123.5C 293.167,123.5 288.833,123.5 284.5,123.5C 284.5,97.5 284.5,71.5 284.5,45.5 Z"/></g>
<g><path style="opacity:0.927" fill="#fefffe" d="M 312.5,45.5 C 323.833,45.5 335.167,45.5 346.5,45.5C 346.5,49.5 346.5,53.5 346.5,57.5C 339.5,57.5 332.5,57.5 325.5,57.5C 325.5,63.8333 325.5,70.1667 325.5,76.5C 331.167,76.5 336.833,76.5 342.5,76.5C 342.5,80.5 342.5,84.5 342.5,88.5C 336.833,88.5 331.167,88.5 325.5,88.5C 325.5,96.1667 325.5,103.833 325.5,111.5C 332.5,111.5 339.5,111.5 346.5,111.5C 346.5,115.5 346.5,119.5 346.5,123.5C 335.167,123.5 323.833,123.5 312.5,123.5C 312.5,97.5 312.5,71.5 312.5,45.5 Z"/></g>
<g><path style="opacity:0.914" fill="#fefffe" d="M 356.5,45.5 C 360.833,45.5 365.167,45.5 369.5,45.5C 372.045,64.1468 374.545,82.8135 377,101.5C 379.828,82.8716 382.328,64.2049 384.5,45.5C 388.5,45.5 392.5,45.5 396.5,45.5C 393.02,71.5264 389.353,97.5264 385.5,123.5C 379.5,123.5 373.5,123.5 367.5,123.5C 364.02,97.4755 360.354,71.4755 356.5,45.5 Z"/></g>
<g><path style="opacity:1" fill="#69e9f4" d="M 461.5,53.5 C 465.5,53.5 469.5,53.5 473.5,53.5C 473.5,73.5 473.5,93.5 473.5,113.5C 469.5,113.5 465.5,113.5 461.5,113.5C 461.5,93.5 461.5,73.5 461.5,53.5 Z"/></g>
<g><path style="opacity:1" fill="#69e9f4" d="M 533.5,53.5 C 537.5,53.5 541.5,53.5 545.5,53.5C 545.5,73.5 545.5,93.5 545.5,113.5C 541.5,113.5 537.5,113.5 533.5,113.5C 533.5,93.5 533.5,73.5 533.5,53.5 Z"/></g>
<g><path style="opacity:1" fill="#69e9f4" d="M 581.5,53.5 C 585.5,53.5 589.5,53.5 593.5,53.5C 593.5,73.5 593.5,93.5 593.5,113.5C 589.5,113.5 585.5,113.5 581.5,113.5C 581.5,93.5 581.5,73.5 581.5,53.5 Z"/></g>
<g><path style="opacity:1" fill="#69e9f4" d="M 437.5,71.5 C 441.5,71.5 445.5,71.5 449.5,71.5C 449.5,79.5 449.5,87.5 449.5,95.5C 445.5,95.5 441.5,95.5 437.5,95.5C 437.5,87.5 437.5,79.5 437.5,71.5 Z"/></g>
<g><path style="opacity:1" fill="#69e9f4" d="M 509.5,71.5 C 513.5,71.5 517.5,71.5 521.5,71.5C 521.5,79.5 521.5,87.5 521.5,95.5C 517.5,95.5 513.5,95.5 509.5,95.5C 509.5,87.5 509.5,79.5 509.5,71.5 Z"/></g>
<g><path style="opacity:1" fill="#69e9f4" d="M 605.5,71.5 C 609.5,71.5 613.5,71.5 617.5,71.5C 617.5,79.5 617.5,87.5 617.5,95.5C 613.5,95.5 609.5,95.5 605.5,95.5C 605.5,87.5 605.5,79.5 605.5,71.5 Z"/></g>
</svg>
